<?xml version="1.0" standalone="no"?>
<!DOCTYPE svg PUBLIC "-//W3C//DTD SVG 20010904//EN"
 "http://www.w3.org/TR/2001/REC-SVG-20010904/DTD/svg10.dtd">
<svg version="1.0" xmlns="http://www.w3.org/2000/svg"
 width="440.000000pt" height="440.000000pt" viewBox="0 0 440.000000 440.000000"
 preserveAspectRatio="xMidYMid meet">
<metadata>
Created by potrace 1.14, written by Peter Selinger 2001-2017
</metadata>
<g transform="translate(0.000000,440.000000) scale(0.100000,-0.100000)"
fill="#000000" stroke="none">
<path d="M2192 3832 c-76 -28 -96 -29 -170 -11 -69 16 -112 16 -112 -1 0 -12
-75 -23 -170 -25 -66 -1 -94 -6 -126 -22 -22 -12 -60 -24 -85 -28 -24 -4 -45
-11 -47 -16 -2 -5 -12 -9 -22 -9 -10 0 -21 -4 -24 -8 -3 -5 -37 -21 -76 -36
-39 -15 -76 -33 -83 -39 -24 -23 -105 -77 -115 -77 -6 0 -19 -11 -30 -25 -11
-14 -23 -25 -27 -25 -12 0 -142 -109 -170 -141 -13 -16 -26 -29 -29 -29 -12 0
-106 -72 -106 -82 0 -5 -5 -6 -10 -3 -6 3 -10 2 -10 -2 0 -5 -28 -38 -62 -74
-77 -80 -98 -106 -92 -112 3 -3 -24 -34 -59 -69 -51 -51 -66 -75 -76 -114 -10
-40 -26 -63 -89 -126 -42 -43 -83 -78 -89 -78 -7 0 -13 -3 -13 -7 0 -5 -16
-25 -35 -46 -19 -21 -35 -43 -35 -48 0 -5 -19 -29 -42 -53 -63 -64 -84 -122
-82 -226 1 -47 5 -96 9 -110 4 -14 8 -34 10 -45 4 -28 24 -77 38 -93 6 -8 12
-39 12 -70 1 -59 20 -132 35 -132 4 0 11 -10 15 -22 9 -28 6 -22 38 -87 14
-29 23 -60 20 -67 -3 -9 2 -14 15 -14 15 0 22 -9 27 -33 4 -17 18 -49 32 -69
13 -20 27 -56 30 -80 3 -24 12 -51 18 -61 7 -10 11 -26 8 -35 -7 -27 65 -162
104 -194 12 -10 25 -27 28 -38 3 -10 15 -22 26 -25 10 -4 19 -11 19 -17 0 -5
24 -32 52 -59 29 -26 57 -52 61 -58 118 -133 189 -174 353 -201 27 -4 72 -18
99 -30 26 -12 59 -24 72 -26 13 -3 40 -13 61 -24 40 -21 73 -29 140 -36 24 -2
52 -9 63 -14 10 -6 19 -8 19 -5 0 2 22 -4 49 -14 36 -15 75 -20 152 -21 117
-1 163 -4 199 -13 87 -22 220 -31 430 -30 277 0 305 2 337 15 15 6 33 12 39
13 6 2 76 23 155 48 79 26 160 48 180 50 48 6 140 36 160 53 8 8 21 14 28 14
16 0 132 58 152 76 8 8 20 14 26 14 6 0 13 3 15 8 4 9 94 73 131 92 44 22 124
106 159 167 11 18 24 33 29 33 5 0 9 5 9 11 0 6 18 48 40 93 22 46 42 91 45
102 2 10 8 33 14 51 5 17 7 34 4 36 -2 3 3 17 12 31 10 14 15 26 11 26 -10 0
93 134 147 190 28 30 61 68 72 84 24 34 65 75 94 96 11 8 21 18 21 22 0 4 26
34 57 65 57 57 58 59 59 119 1 34 4 72 7 86 4 16 0 39 -10 59 -10 19 -18 39
-19 44 -1 6 -4 33 -8 62 -3 28 -8 57 -11 65 -8 19 -12 167 -6 174 12 12 11 61
-3 94 -8 19 -26 68 -41 108 -15 39 -30 72 -34 72 -14 0 -102 131 -100 148 4
28 -4 54 -18 59 -19 7 -43 28 -43 36 0 3 -15 21 -32 39 -18 19 -46 50 -63 70
-96 113 -149 167 -176 178 -16 7 -29 16 -29 21 0 8 -52 39 -65 39 -20 1 -65
14 -65 20 0 4 -11 12 -25 18 -14 6 -25 18 -25 27 0 8 -4 15 -9 15 -4 0 -24 13
-42 30 -19 16 -38 30 -44 31 -51 4 -160 44 -183 65 -14 14 -25 18 -107 35 -33
7 -62 13 -65 14 -19 6 -47 18 -60 26 -80 49 -106 56 -185 54 -44 -1 -87 2 -96
6 -18 9 -57 18 -113 26 -21 3 -56 13 -77 23 -27 11 -56 16 -92 13 -61 -5 -119
-5 -205 0 -37 2 -77 -2 -100 -11z"/>
</g>
</svg>
